<svg width="24" height="20" viewBox="0 0 24 20" fill="none" xmlns="http://www.w3.org/2000/svg">
<g clip-path="url(#clip0_410_12)">
<path d="M22.6674 1.99945V7.99945H16.4233" stroke="white" stroke-width="2" stroke-linecap="round" stroke-linejoin="round"/>
<path d="M20.0548 12.9976C19.3784 14.8375 18.0978 16.4163 16.4063 17.4961C14.7148 18.5759 12.7039 19.0981 10.6766 18.9841C8.64933 18.8702 6.71551 18.1262 5.16656 16.8642C3.61762 15.6023 2.53746 13.8908 2.08887 11.9876C1.64027 10.0845 1.84754 8.0927 2.67945 6.31258C3.51136 4.53246 4.92282 3.06037 6.70115 2.11815C8.47948 1.17593 10.5283 0.814613 12.5389 1.08865C14.5496 1.3627 16.4131 2.25725 17.8486 3.63751L22.6669 7.99751" stroke="white" stroke-width="2" stroke-linecap="round" stroke-linejoin="round"/>
</g>
<defs>
<clipPath id="clip0_410_12">
<rect width="22.895" height="20" fill="white" transform="translate(0.813599)"/>
</clipPath>
</defs>
</svg>

